<?xml version="1.0" encoding="UTF-8"?>
<!DOCTYPE svg PUBLIC "-//W3C//DTD SVG 1.1//EN" "http://www.w3.org/Graphics/SVG/1.1/DTD/svg11.dtd">
<!-- Creator: CorelDRAW 2018 (64-Bit Evaluation Version) -->
<svg xmlns="http://www.w3.org/2000/svg" xml:space="preserve" width="68.5878mm" height="78.068mm" version="1.1" style="shape-rendering:geometricPrecision; text-rendering:geometricPrecision; image-rendering:optimizeQuality; fill-rule:evenodd; clip-rule:evenodd"
viewBox="0 0 6858.78 7806.8"
 xmlns:xlink="http://www.w3.org/1999/xlink">
 <defs>
  <style type="text/css">
   <![CDATA[
    .fil1 {fill:#54C4CF}
    .fil0 {fill:#C656A0}
    .fil2 {fill:#CBB166}
    .fil3 {fill:#CBCCCE}
   ]]>
  </style>
 </defs>
 <g id="Layer_x0020_1">
  <metadata id="CorelCorpID_0Corel-Layer"/>
  <g id="_2811009720688">
   <polygon class="fil0" points="1918.25,4736.58 1918.25,2870.26 1412.33,3369.22 1412.33,5242.5 "/>
   <polygon class="fil1" points="3080.22,2091.35 3080.22,4956.18 3453.45,5329.42 3811.31,4971.55 3811.31,1468.14 "/>
   <polygon class="fil0" points="3080.22,1094.36 3811.31,1451.73 3811.31,1180.1 3080.22,784.06 2909.56,691.62 2897.42,704.2 2672.52,937.23 1918.25,1718.73 1918.25,2855.56 1927.13,2861.5 2672.52,3360.29 2672.52,4548.48 2897.42,4773.39 2897.42,1005 "/>
   <polygon class="fil0" points="3994.11,1647.43 3994.11,4788.76 4517.47,4265.4 4553.96,4301.89 4762.81,4510.73 4762.81,2283.49 4553.96,2110.69 "/>
   <polygon class="fil1" points="4945.6,2181.67 4945.6,4693.53 5474.39,5222.32 5474.39,49.98 4945.6,324.33 4762.81,419.17 4553.96,527.53 4553.96,1872.53 4762.81,2037.39 "/>
   <polygon class="fil1" points="5474.39,5604.51 5588.2,5718.32 5806.08,5718.32 5474.39,5386.63 4945.6,4857.84 4762.81,4675.05 4553.96,4466.2 4517.47,4429.71 3994.11,4953.08 3811.31,5135.87 3535.61,5411.58 3453.45,5493.73 3371.29,5411.58 3080.22,5120.5 2897.42,4937.7 2672.52,4712.8 2389.43,4429.71 1918.25,4900.89 1412.33,5406.81 1100.82,5718.32 1318.7,5718.32 1412.33,5624.69 1918.25,5118.77 2389.43,4647.59 2672.52,4930.67 2897.42,5155.58 3080.22,5338.37 3262.34,5520.53 3344.5,5602.68 3228.86,5718.32 3446.74,5718.32 3453.45,5711.61 3562.38,5602.68 3644.53,5520.53 3811.31,5353.74 3994.11,5170.95 4517.47,4647.59 4553.96,4684.08 4762.81,4892.93 4945.6,5075.72 "/>
   <path class="fil1" d="M5080.57 5735.34l0 1495.06 380.92 0 0 -538.53 1056.19 0c40.65,0 81.33,-3.73 121.31,-12.04 32.56,-6.79 63.83,-19 91.84,-38.89 24.81,-17.64 43.07,-41.62 56.36,-70.85 17,-37.38 21.57,-83.99 21.57,-125.36l0 -455.12c0,-42.02 -3.78,-90.08 -18.72,-129.13 -11.11,-29.09 -27.49,-52.87 -50.61,-71.23 -27.7,-22.06 -62.4,-33.97 -95.6,-40.58 -51.41,-10.22 -104.96,-13.33 -157.13,-13.33l-1406.13 0zm407.33 748.22l748.8 0c22.84,0 45.89,-0.51 68.66,-2.56 23.49,-2.1 46.98,-8.37 67.18,-22.31 23.61,-16.35 38.57,-41.89 46.35,-71.22 7.23,-27.17 8.96,-57.49 8.96,-85.69l0 -166.8c0,-29.07 -1.63,-60.45 -8.76,-88.53 -7.11,-28.2 -20.19,-53.71 -41.57,-71.4 -19.75,-16.35 -43.59,-24.15 -67.73,-27.38 -24.08,-3.26 -48.84,-4.02 -73.09,-4.02l-252.13 0 -159.45 0 -211.43 0 -125.79 0 -26.41 0 0 156.84 0 217.87 0 164.32 0 0.88 26.41 0z"/>
   <polygon class="fil0" points="2415.97,5735.34 2415.97,7230.4 2741.55,7230.4 2741.55,6228.68 3342.1,7046.92 3450.54,7046.92 4070.77,6213.93 4070.77,7230.4 4451.66,7230.4 4451.66,5735.34 4007.9,5735.34 3403.75,6553.06 2804.3,5735.34 "/>
   <path class="fil1" d="M1809.17 6758.06l-380.89 -86.47 0 255.2 -997.36 0 0 -916.43 997.36 0 0 217.06 380.89 -58.87 0 -145.58c0,-41.28 -4.35,-82.7 -15.22,-122.23 -9.01,-32.61 -24.5,-60.15 -46.76,-83.54 -26.74,-28.1 -62.13,-46.31 -96.8,-58.59 -52.5,-18.53 -112.95,-23.27 -167.73,-23.27l-997.75 0c-60.6,0 -121.51,6.42 -180.55,22.11 -48.69,12.95 -95.88,33.45 -137.49,64.84 -36.59,27.58 -65.08,62.81 -85.88,106.26 -23.44,49.02 -30.98,106.18 -30.98,161.15l0 745.83c0,55.22 8.3,109.3 27.62,160.29 18.08,47.72 44.51,88.53 79.37,122.75 38.88,38.09 85.98,63.9 134.98,81.49 62.54,22.45 129.7,30.34 195.15,30.34l951.31 0c57.38,0 117.67,-7.1 171.78,-29.46 41.39,-17.09 81.4,-40.95 113.65,-74.92 28.23,-29.76 49.56,-64.42 63.71,-104.76 14.2,-40.54 21.59,-82.63 21.59,-126.15l0 -137.05z"/>
   <path class="fil2" d="M86.05 7404.35l168.12 0c29.03,0 51.71,5.32 68.94,17.17 17.32,11.92 28.97,30.32 35.85,56.38l0.61 2.28 -69.34 50.66c24.59,4.23 43.58,14.46 56.79,30.52 14.64,17.78 22.06,42.58 22.06,74.11 0,34.14 -9.7,60.76 -28.4,78.86 -18.59,18.01 -45.91,27.47 -81.27,27.47l-176.82 0 0 -8.22 6.73 -6.72c0.83,-0.84 1.42,-1.75 1.77,-2.7 0.38,-1.02 0.55,-2.17 0.55,-3.45l0 -295.75c0,-1.24 -0.16,-2.26 -0.5,-3.09 -0.35,-0.85 -0.96,-1.69 -1.82,-2.56l-6.73 -6.73 0 -8.23 3.46 0zm61.09 51.7l0 233.58 112.27 0c17.62,0 30.78,-4.2 39.37,-12.68 8.59,-8.49 12.89,-21.48 12.89,-39.1 0,-20.17 -5.35,-35.04 -16.22,-44.76 -11,-9.82 -27.87,-14.65 -50.81,-14.65 -8.08,0 -16.14,0.24 -24.09,0.71 -7.93,0.48 -15.84,1.19 -23.6,2.13l-12.3 1.49 102.16 -80.04c3.74,-3.08 6.59,-5.91 8.43,-8.86 1.72,-2.78 2.62,-5.77 2.62,-9.37 0,-8.5 -3.8,-15.62 -10.94,-20.55 -7.26,-5.01 -18.01,-7.9 -31.8,-7.9l-107.98 0zm486.47 230.3c13.04,-6.93 18.58,-18.48 18.58,-36.59l0 -224.8c0,-1.24 -0.16,-2.26 -0.5,-3.09 -0.35,-0.85 -0.95,-1.69 -1.82,-2.56l-6.72 -6.75 0 -8.21 73.6 0 0 8.23 -6.74 6.73c-0.86,0.87 -1.47,1.71 -1.82,2.56 -0.33,0.83 -0.5,1.85 -0.5,3.09l0 239.56c0,27.75 -12.14,48.65 -36.39,62.58 -23.64,13.59 -58.87,20.42 -105.66,20.42 -94.7,0 -142.05,-27.83 -142.05,-83l0 -239.56c0,-1.24 -0.16,-2.26 -0.5,-3.09 -0.34,-0.85 -0.95,-1.69 -1.82,-2.56l-6.73 -6.73 0 -8.23 73.6 0 0 8.23 -6.74 6.73c-0.85,0.86 -1.45,1.69 -1.79,2.53 -0.35,0.86 -0.51,1.88 -0.51,3.12l0 224.8c0,18.11 5.64,29.67 18.64,36.6 13.7,7.3 35.6,9.94 67.43,9.94 32.53,0 54.67,-2.64 68.44,-9.95zm157.1 37.8c0.38,-1.01 0.55,-2.16 0.55,-3.44l0 -295.75c0,-1.24 -0.16,-2.26 -0.5,-3.09 -0.35,-0.85 -0.95,-1.69 -1.82,-2.56l-6.72 -6.75 0 -8.21 73.6 0 0 8.23 -6.74 6.73c-0.86,0.87 -1.47,1.71 -1.82,2.56 -0.33,0.83 -0.5,1.85 -0.5,3.09l0 295.75c0,1.28 0.18,2.43 0.55,3.43 0.35,0.97 0.94,1.88 1.77,2.71l6.74 6.73 0 8.22 -73.6 0 0 -8.22 6.72 -6.73c0.83,-0.83 1.42,-1.74 1.77,-2.7zm139.07 0c0.38,-1.01 0.55,-2.16 0.55,-3.44l0 -295.75c0,-1.24 -0.16,-2.26 -0.5,-3.09 -0.35,-0.85 -0.95,-1.69 -1.82,-2.56l-6.73 -6.73 0 -8.23 73.6 0 0 8.23 -6.74 6.73c-0.85,0.86 -1.45,1.69 -1.79,2.53 -0.35,0.86 -0.52,1.88 -0.52,3.12l0 264.67 117.03 0c1.62,0 2.85,-0.25 3.92,-0.74 1.17,-0.55 2.39,-1.47 3.83,-2.71l11.08 -9.3 7.62 5.07 -32.5 59.85 -175.53 0 0 -8.22 6.73 -6.72c0.83,-0.84 1.42,-1.75 1.77,-2.71zm393.59 17.65l-162.06 0 0 -8.31 7.21 -6.64c0.83,-0.83 1.42,-1.74 1.77,-2.69 0.37,-1.02 0.55,-2.17 0.55,-3.45l0 -295.75c0,-1.24 -0.17,-2.26 -0.5,-3.09 -0.35,-0.85 -0.96,-1.69 -1.82,-2.56l-7.21 -6.66 0 -8.3 163.49 0c24.78,0 46.64,2.19 66.09,7.52 19.6,5.37 36.71,13.93 51.84,26.62 19.95,16.56 35.42,37.15 45.89,60.79 10.4,23.51 15.85,50.03 15.85,78.56 0,26.62 -4.97,50.88 -14.65,72.36 -9.74,21.6 -24.26,40.42 -43.3,56.03 -19.47,15.84 -38.5,24.75 -58.63,29.69 -20.03,4.9 -40.98,5.88 -64.52,5.88zm49.68 -280.69c-13.67,-3.55 -29.72,-5.06 -48.25,-5.06l-98.94 0 0 233.58 97.51 0c16.69,0 31.48,-0.7 44.9,-3.71 13.27,-2.98 25.32,-8.27 36.76,-17.42 13.9,-10.9 24.43,-24.34 31.45,-40.24 7.01,-15.88 10.58,-34.3 10.58,-55.18 0,-19.22 -3.68,-37.4 -10.52,-53.5 -6.88,-16.22 -16.98,-30.41 -29.72,-41.54 -9.09,-7.96 -20.31,-13.45 -33.77,-16.93zm462.77 -5.06l-123.35 0c-17.82,0 -33.27,1.4 -46.53,4.77 -13.06,3.32 -24.06,8.59 -33.15,16.31 -13.85,11.77 -24.38,25.88 -31.43,41.9 -7.07,16.11 -10.68,34.25 -10.68,54.05 0,20.99 3.49,39.48 10.44,55.4 6.91,15.82 17.29,29.18 31.09,39.99 11.46,9.18 23.65,14.47 37.02,17.45 13.53,3.01 28.44,3.71 45.15,3.71l143.35 0c1.66,0 3.01,-0.27 4.23,-0.79 1.32,-0.55 2.6,-1.46 4,-2.66l10.06 -8.45 10.84 0 -34.69 64.07 -137.79 0c-23.54,0 -44.62,-0.98 -64.75,-5.88 -20.24,-4.94 -39.41,-13.84 -58.89,-29.67 -19.04,-15.63 -33.58,-34.48 -43.32,-56.17 -9.66,-21.53 -14.62,-45.89 -14.62,-72.72 0,-20.6 2.8,-40.04 8.4,-58.16 5.59,-18.04 13.97,-34.78 25.13,-50.06 8.09,-10.8 17.14,-20.46 27.1,-28.87 9.84,-8.3 20.62,-15.44 32.25,-21.25 13.97,-6.86 27.9,-10.54 42.28,-12.49 14.27,-1.93 28.92,-2.18 44.51,-2.18l170.13 0 -34.74 63.6 -8.28 0c0.3,-2.7 0.87,-6.05 0.87,-8.7 0,-0.84 -0.38,-1.6 -1.02,-2.12 -0.81,-0.67 -2.07,-1.08 -3.61,-1.08zm-30 127.16l-212.02 0 23.07 -52.17 235.66 0 -34.17 64.08 -8.75 0c0.3,-2.89 0.84,-6.35 0.84,-9.19 0,-0.72 -0.32,-1.33 -0.85,-1.74 -0.82,-0.63 -2.15,-0.98 -3.78,-0.98zm117.16 -178.86l185.27 0c22.91,0 43.49,7.2 59.33,20.17 15.57,12.75 26.58,31.08 30.74,53.64l0.39 2.12 -78.62 57.97c37.48,7.68 68.26,27.73 90.01,57.4 23.02,31.39 35.92,73.54 35.92,123.16l0 22.99 -64.56 0 0 -8.31 7.21 -6.64c0.82,-0.83 1.41,-1.74 1.77,-2.69 0.37,-1.02 0.54,-2.17 0.54,-3.45l0 -10.47c0,-38.18 -13.08,-70.92 -34.9,-94.14 -21.99,-23.38 -52.92,-37.17 -88.31,-37.17 -5.13,0 -10.29,0.23 -15.51,0.64 -5.35,0.42 -10.65,1.01 -15.96,1.7l-12.51 1.64 98.05 -76.84c5.47,-4.11 9.51,-7.8 12.12,-11.62 2.46,-3.57 3.68,-7.36 3.68,-11.86 0,-8.18 -3.5,-14.78 -10.21,-19.28 -6.99,-4.68 -17.44,-7.26 -31.09,-7.26l-112.27 0 0 264.66c0,1.28 0.18,2.43 0.55,3.43 0.35,0.96 0.94,1.88 1.76,2.71l6.74 6.73 0 8.22 -73.6 0 0 -8.22 6.74 -6.72c0.82,-0.84 1.41,-1.75 1.76,-2.7 0.38,-1.02 0.55,-2.17 0.55,-3.45l0 -295.75c0,-1.24 -0.16,-2.26 -0.5,-3.09 -0.35,-0.85 -0.95,-1.69 -1.82,-2.56l-6.73 -6.73 0 -8.23 3.46 0zm464.79 113.71l104.71 26.91c40.58,10.37 71.61,27.35 92.54,50.16 21.16,23.07 32,52.01 32,86.06l0 60.61 -360.26 0 23.06 -52.17 280.39 0 0.35 -6.06c0,-22.42 -6.49,-40.59 -19.78,-54.86 -13.46,-14.44 -33.99,-25.08 -61.91,-32.29l-136.69 -34.76c-24.7,-6.36 -43.14,-16.11 -55.44,-29.47 -12.45,-13.52 -18.6,-30.61 -18.6,-51.51 0,-23.55 8.66,-42.91 25.19,-56.29 15.83,-12.81 38.84,-20.04 68.28,-20.04l231.57 0 -34.74 63.6 -8.77 0c0.31,-2.69 0.89,-6.07 0.89,-8.7 0,-0.83 -0.38,-1.58 -1.03,-2.1 -0.8,-0.69 -2.07,-1.1 -3.6,-1.1l-184.32 0c-12.86,0 -22.24,1.96 -28.25,6.01 -5.56,3.77 -8.29,9.61 -8.29,17.67 0,22.51 19.33,27.39 62.7,38.33zm568.68 -46.77l-30.95 0c-11.79,0 -21.14,3.26 -27.52,8.9 -6.46,5.7 -9.97,13.98 -9.97,23.83 0,7.65 2.42,15.11 7.37,22.41 5.12,7.55 12.94,15.01 23.52,22.37l1.49 1.04 0 9.55 -3.46 0c-18.85,0 -34.6,6.56 -45.54,18.13 -10.92,11.56 -17.2,28.22 -17.2,48.42 0,21.38 6.75,38.63 18.9,50.47 12.2,11.88 29.97,18.46 51.93,18.46 21.1,0 38.09,-6.85 49.74,-19.12 11.75,-12.38 18.24,-30.43 18.24,-52.66 0,-2.35 -0.12,-5 -0.39,-7.95l-0.98 -7.64 -28.5 0c-2.33,0 -4.1,0.1 -5.61,0.55 -1.49,0.46 -3.06,1.36 -5.08,2.96l-10.19 9.06 -8.12 -4.06 32.16 -60.68 112.09 0c3.17,0 5.13,-0.19 6.61,-0.7 1.44,-0.49 2.77,-1.42 4.6,-2.85l9.38 -7.04 7.94 3.96 -31.22 58.8 -31.55 0c0.54,6.04 0.55,11.93 0.55,17.49 0,35.37 -12.55,66.05 -34.61,87.77 -21.56,21.21 -52.14,33.81 -88.87,33.81 -35.16,0 -64.97,-12.2 -86.1,-32.56 -21.53,-20.74 -34.04,-49.92 -34.04,-83.31 0,-20.77 3.94,-38.92 12.06,-54.79 7.66,-14.97 19.03,-27.88 34.3,-38.95 -3.56,-5.61 -6.3,-11.43 -8.22,-17.49 -2.24,-7.14 -3.37,-14.64 -3.37,-22.59 0,-22.03 9.46,-41.38 24.78,-55.27 15.45,-14.04 36.93,-22.5 60.59,-22.5l82.49 0 -34.71 64.09 -8.73 0c0.29,-2.9 0.83,-6.33 0.83,-9.18 0,-0.73 -0.33,-1.34 -0.85,-1.75 -0.82,-0.63 -2.15,-0.98 -3.79,-0.98zm496.75 270.51l-162.06 0 0 -8.31 7.21 -6.64c0.83,-0.83 1.42,-1.74 1.77,-2.69 0.38,-1.02 0.55,-2.17 0.55,-3.45l0 -295.75c0,-1.24 -0.16,-2.26 -0.5,-3.09 -0.35,-0.85 -0.96,-1.69 -1.82,-2.56l-7.21 -6.66 0 -8.3 163.49 0c24.79,0 46.64,2.19 66.09,7.52 19.6,5.37 36.71,13.93 51.84,26.62 19.96,16.56 35.43,37.15 45.89,60.79 10.4,23.51 15.85,50.03 15.85,78.56 0,26.62 -4.97,50.88 -14.65,72.36 -9.73,21.6 -24.26,40.42 -43.3,56.03 -19.47,15.84 -38.5,24.75 -58.63,29.69 -20.02,4.9 -40.98,5.88 -64.52,5.88zm49.68 -280.69c-13.66,-3.55 -29.71,-5.06 -48.25,-5.06l-98.94 0 0 233.58 97.51 0c16.7,0 31.48,-0.7 44.91,-3.71 13.26,-2.98 25.31,-8.27 36.76,-17.42 13.9,-10.9 24.42,-24.34 31.44,-40.24 7.01,-15.88 10.58,-34.3 10.58,-55.18 0,-19.22 -3.68,-37.4 -10.52,-53.5 -6.88,-16.22 -16.98,-30.41 -29.72,-41.54 -9.09,-7.96 -20.31,-13.45 -33.77,-16.93zm462.78 -5.06l-123.36 0c-17.81,0 -33.27,1.4 -46.53,4.77 -13.06,3.32 -24.06,8.59 -33.15,16.31 -13.84,11.77 -24.38,25.88 -31.42,41.9 -7.08,16.11 -10.69,34.25 -10.69,54.05 0,20.99 3.5,39.48 10.44,55.4 6.91,15.82 17.29,29.18 31.09,39.99 11.46,9.18 23.65,14.47 37.02,17.45 13.54,3.01 28.45,3.71 45.15,3.71l143.35 0c1.66,0 3.01,-0.27 4.23,-0.79 1.32,-0.55 2.6,-1.46 4,-2.66l10.06 -8.45 10.85 0 -34.7 64.07 -137.79 0c-23.54,0 -44.62,-0.98 -64.75,-5.88 -20.24,-4.94 -39.41,-13.84 -58.88,-29.67 -19.05,-15.63 -33.59,-34.48 -43.33,-56.17 -9.66,-21.53 -14.62,-45.89 -14.62,-72.72 0,-20.6 2.81,-40.04 8.41,-58.16 5.59,-18.04 13.96,-34.78 25.12,-50.06 8.09,-10.8 17.15,-20.46 27.1,-28.87 9.84,-8.3 20.63,-15.44 32.25,-21.25 13.97,-6.86 27.91,-10.54 42.28,-12.49 14.27,-1.93 28.92,-2.18 44.51,-2.18l239.22 0 0 8.23 -5.31 5.31c-0.64,0.63 -1.14,1.27 -1.42,1.91 -0.27,0.62 -0.42,1.38 -0.42,2.3 0,0.76 0.4,2.45 1.3,4.93 0.8,2.16 1.95,4.79 3.52,7.74l104.15 205.51 106.43 -205.47c1.66,-3.13 2.84,-5.73 3.62,-7.79 0.86,-2.26 1.23,-3.75 1.23,-4.44 0,-1.1 -0.07,-1.98 -0.28,-2.6 -0.2,-0.55 -0.54,-1.09 -1.08,-1.62l-5.78 -5.78 0 -8.23 77.72 0c-60.76,117.51 -121.5,235.03 -182.38,352.47l-176.29 -341.64 -28.84 52.77 -8.28 0c0.3,-2.7 0.87,-6.05 0.87,-8.7 0,-0.84 -0.38,-1.6 -1.01,-2.12 -0.81,-0.67 -2.08,-1.08 -3.61,-1.08zm-30.01 127.16l-212.02 0 23.07 -52.17 235.66 0 -34.17 64.08 -8.75 0c0.3,-2.89 0.85,-6.35 0.85,-9.19 0,-0.72 -0.33,-1.33 -0.86,-1.74 -0.82,-0.63 -2.14,-0.98 -3.78,-0.98zm729.64 -127.16l-123.36 0c-17.81,0 -33.27,1.4 -46.53,4.77 -13.06,3.32 -24.06,8.59 -33.15,16.31 -13.84,11.77 -24.38,25.88 -31.42,41.9 -7.08,16.11 -10.69,34.25 -10.69,54.05 0,20.99 3.5,39.48 10.44,55.4 6.91,15.82 17.29,29.18 31.09,39.99 11.46,9.18 23.65,14.47 37.02,17.45 13.54,3.01 28.45,3.71 45.15,3.71l143.35 0c1.66,0 3.01,-0.27 4.23,-0.79 1.32,-0.55 2.6,-1.46 4,-2.66l10.06 -8.45 10.85 0 -34.7 64.07 -137.79 0c-23.54,0 -44.62,-0.98 -64.75,-5.88 -20.24,-4.94 -39.41,-13.84 -58.88,-29.67 -19.05,-15.63 -33.59,-34.48 -43.33,-56.17 -9.66,-21.53 -14.62,-45.89 -14.62,-72.72 0,-20.6 2.81,-40.04 8.41,-58.16 5.59,-18.04 13.96,-34.78 25.12,-50.06 8.09,-10.8 17.15,-20.46 27.1,-28.87 9.84,-8.3 20.63,-15.44 32.25,-21.25 13.97,-6.86 27.91,-10.54 42.28,-12.49 14.27,-1.93 28.92,-2.18 44.51,-2.18l170.13 0 -34.74 63.6 -8.28 0c0.3,-2.7 0.87,-6.05 0.87,-8.7 0,-0.84 -0.38,-1.6 -1.01,-2.12 -0.81,-0.67 -2.08,-1.08 -3.61,-1.08zm-30.01 127.16l-212.02 0 23.07 -52.17 235.66 0 -34.17 64.08 -8.75 0c0.3,-2.89 0.85,-6.35 0.85,-9.19 0,-0.72 -0.33,-1.33 -0.86,-1.74 -0.82,-0.63 -2.14,-0.98 -3.78,-0.98zm122.21 140.94c0.37,-1.01 0.54,-2.16 0.54,-3.44l0 -295.75c0,-1.24 -0.16,-2.26 -0.5,-3.09 -0.34,-0.85 -0.95,-1.69 -1.81,-2.56l-6.74 -6.73 0 -8.23 73.6 0 0 8.23 -6.73 6.73c-0.87,0.87 -1.47,1.71 -1.81,2.56 -0.34,0.83 -0.5,1.85 -0.5,3.09l0 264.67 117.02 0c1.62,0 2.86,-0.25 3.92,-0.74 1.17,-0.55 2.39,-1.47 3.84,-2.71l11.06 -9.3 7.63 5.07 -32.51 59.85 -175.52 0 0 -8.22 6.74 -6.72c0.82,-0.84 1.41,-1.75 1.77,-2.71zm314.89 -314.8c21.32,-7 45.13,-10.71 70.58,-10.71 25.51,0 49.31,3.77 70.5,10.73 21.84,7.17 40.99,17.75 56.53,31.06 20.35,17.44 35.77,37.48 46.1,59.68 10.35,22.27 15.6,46.73 15.6,72.97 0,26.14 -5.33,50.52 -15.67,72.66 -10.39,22.25 -25.84,42.25 -46.03,59.51 -15.72,13.51 -34.93,24.17 -56.72,31.41 -21.26,7.06 -44.99,10.86 -70.31,10.86 -25.29,0 -49.03,-3.8 -70.29,-10.86 -21.79,-7.24 -41.01,-17.9 -56.73,-31.41 -20.19,-17.27 -35.65,-37.27 -46.03,-59.51 -10.34,-22.15 -15.67,-46.52 -15.67,-72.66 0,-26.3 5.27,-50.93 15.68,-73.3 10.32,-22.22 25.73,-42.2 46.03,-59.36 15.68,-13.45 34.78,-23.97 56.43,-31.07zm164.83 74.88c-22.84,-21.54 -55.34,-34.37 -94.25,-34.37 -38.91,0 -71.4,12.83 -94.23,34.37 -23.27,21.94 -36.6,53.01 -36.6,88.85 0,35.83 13.34,66.9 36.6,88.84 22.83,21.54 55.32,34.38 94.23,34.38 38.91,0 71.41,-12.84 94.25,-34.38 23.25,-21.94 36.6,-53.01 36.6,-88.84 0,-35.83 -13.35,-66.9 -36.6,-88.85zm143.89 -79.88l183.35 0c29.13,0 53.95,10.41 71.53,27.91 17.77,17.68 28.15,42.59 28.15,71.28 0,27.99 -9.42,51.72 -26,68.38 -16.4,16.49 -39.79,26.05 -67.96,26.05l-75.33 0 -30.21 -52.17 102.69 0c12.32,0 22.18,-4.02 28.89,-11.32 6.78,-7.38 10.5,-18.26 10.5,-31.89 0,-14.55 -4.77,-26.24 -13.63,-34.18 -8.88,-7.96 -21.98,-12.36 -38.62,-12.36l-112.27 0 0 264.66c0,1.28 0.18,2.43 0.55,3.43 0.35,0.96 0.93,1.88 1.76,2.71l6.74 6.73 0 8.22 -73.61 0 0 -8.22 6.75 -6.72c0.82,-0.84 1.41,-1.75 1.76,-2.7 0.38,-1.02 0.55,-2.17 0.55,-3.45l0 -295.75c0,-1.24 -0.17,-2.26 -0.5,-3.09 -0.35,-0.85 -0.96,-1.69 -1.82,-2.56l-6.74 -6.73 0 -8.23 3.47 0zm613.9 51.7l-123.35 0c-17.82,0 -33.27,1.4 -46.54,4.77 -13.06,3.32 -24.06,8.59 -33.15,16.31 -13.84,11.77 -24.38,25.88 -31.42,41.9 -7.07,16.11 -10.68,34.25 -10.68,54.05 0,20.99 3.49,39.48 10.43,55.4 6.91,15.82 17.29,29.18 31.09,39.99 11.46,9.18 23.65,14.47 37.02,17.45 13.54,3.01 28.45,3.71 45.15,3.71l143.36 0c1.65,0 3,-0.27 4.22,-0.79 1.32,-0.55 2.6,-1.46 4,-2.66l10.07 -8.45 10.84 0 -34.7 64.07 -137.79 0c-23.54,0 -44.62,-0.98 -64.74,-5.88 -20.25,-4.94 -39.42,-13.84 -58.89,-29.67 -19.04,-15.63 -33.59,-34.48 -43.32,-56.17 -9.67,-21.53 -14.63,-45.89 -14.63,-72.72 0,-20.6 2.81,-40.04 8.41,-58.16 5.59,-18.04 13.96,-34.78 25.12,-50.06 8.09,-10.8 17.15,-20.46 27.1,-28.87 9.85,-8.3 20.63,-15.44 32.25,-21.25 13.98,-6.86 27.91,-10.54 42.28,-12.49 14.27,-1.93 28.93,-2.18 44.52,-2.18l170.13 0 -34.75 63.6 -8.28 0c0.3,-2.7 0.88,-6.05 0.88,-8.7 0,-0.84 -0.39,-1.6 -1.02,-2.12 -0.81,-0.67 -2.07,-1.08 -3.61,-1.08zm-30.01 127.16l-212.02 0 23.08 -52.17 235.66 0 -34.17 64.08 -8.76 0c0.3,-2.89 0.85,-6.35 0.85,-9.19 0,-0.72 -0.33,-1.33 -0.86,-1.74 -0.81,-0.63 -2.14,-0.98 -3.78,-0.98zm117.16 -178.86l185.27 0c22.92,0 43.5,7.2 59.33,20.17 15.57,12.75 26.58,31.08 30.74,53.64l0.4 2.12 -78.62 57.97c37.47,7.68 68.25,27.73 90.01,57.4 23.01,31.39 35.91,73.54 35.91,123.16l0 22.99 -64.56 0 0 -8.31 7.21 -6.64c0.83,-0.83 1.42,-1.74 1.77,-2.69 0.38,-1.02 0.55,-2.17 0.55,-3.45l0 -10.47c0,-38.18 -13.08,-70.92 -34.91,-94.14 -21.99,-23.38 -52.92,-37.17 -88.31,-37.17 -5.12,0 -10.29,0.23 -15.51,0.64 -5.35,0.42 -10.65,1.01 -15.96,1.7l-12.51 1.64 98.05 -76.84c5.47,-4.11 9.52,-7.8 12.13,-11.62 2.45,-3.57 3.68,-7.36 3.68,-11.86 0,-8.18 -3.5,-14.78 -10.22,-19.28 -6.98,-4.68 -17.43,-7.26 -31.09,-7.26l-112.26 0 0 264.66c0,1.28 0.17,2.43 0.55,3.43 0.35,0.96 0.93,1.88 1.76,2.71l6.73 6.73 0 8.22 -73.6 0 0 -8.22 6.75 -6.72c0.81,-0.84 1.41,-1.75 1.76,-2.7 0.37,-1.02 0.55,-2.17 0.55,-3.45l0 -295.75c0,-1.24 -0.17,-2.26 -0.5,-3.09 -0.35,-0.85 -0.96,-1.69 -1.82,-2.56l-6.74 -6.73 0 -8.23 3.46 0zm464.79 113.71l104.72 26.91c40.58,10.37 71.6,27.35 92.54,50.16 21.16,23.07 31.99,52.01 31.99,86.06l0 60.61 -360.25 0 23.06 -52.17 280.38 0 0.36 -6.06c0,-22.42 -6.49,-40.59 -19.78,-54.86 -13.47,-14.44 -33.99,-25.08 -61.92,-32.29l-136.69 -34.76c-24.69,-6.36 -43.14,-16.11 -55.44,-29.47 -12.45,-13.52 -18.59,-30.61 -18.59,-51.51 0,-23.55 8.66,-42.91 25.18,-56.29 15.83,-12.81 38.85,-20.04 68.29,-20.04l231.56 0 -34.73 63.6 -8.77 0c0.31,-2.69 0.89,-6.07 0.89,-8.7 0,-0.83 -0.38,-1.58 -1.03,-2.1 -0.81,-0.69 -2.07,-1.1 -3.61,-1.1l-184.31 0c-12.86,0 -22.24,1.96 -28.25,6.01 -5.57,3.77 -8.29,9.61 -8.29,17.67 0,22.51 19.32,27.39 62.69,38.33z"/>
   <rect class="fil3" x="2212.38" y="5213.18" width="160.04" height="168.78"/>
   <rect class="fil3" x="2404.96" y="5213.18" width="160.04" height="168.78"/>
   <rect class="fil3" x="2212.38" y="5405.77" width="160.04" height="168.78"/>
   <rect class="fil3" x="2404.96" y="5405.77" width="160.04" height="168.78"/>
   <rect class="fil3" x="4341.33" y="5213.18" width="160.04" height="168.78"/>
   <rect class="fil3" x="4341.33" y="5405.77" width="160.04" height="168.78"/>
   <rect class="fil3" x="4533.91" y="5405.77" width="160.04" height="168.78"/>
   <rect class="fil3" x="4533.91" y="5213.18" width="160.04" height="168.78"/>
  </g>
 </g>
</svg>
